<?xml version="1.0" encoding="UTF-8" standalone="no"?>
<svg
   xmlns:dc="http://purl.org/dc/elements/1.1/"
   xmlns:cc="http://creativecommons.org/ns#"
   xmlns:rdf="http://www.w3.org/1999/02/22-rdf-syntax-ns#"
   xmlns:svg="http://www.w3.org/2000/svg"
   xmlns="http://www.w3.org/2000/svg"
   id="svg1053"
   version="1.1"
   viewBox="0 0 235.40317 185.95411"
   height="702.81866"
   width="889.71283">
  <defs
     id="defs1047">
    <marker
       orient="auto"
       refY="0"
       refX="0"
       id="marker1494"
       style="overflow:visible">
      <path
         id="path1492"
         d="M 0,0 5,-5 -12.5,0 5,5 Z"
         style="fill:#000000;fill-opacity:1;fill-rule:evenodd;stroke:#000000;stroke-width:1.00000003pt;stroke-opacity:1"
         transform="matrix(0.8,0,0,0.8,10,0)" />
    </marker>
    <marker
       orient="auto"
       refY="0"
       refX="0"
       id="marker1484"
       style="overflow:visible">
      <path
         id="path1482"
         d="M 0,0 5,-5 -12.5,0 5,5 Z"
         style="fill:#000000;fill-opacity:1;fill-rule:evenodd;stroke:#000000;stroke-width:1.00000003pt;stroke-opacity:1"
         transform="matrix(0.8,0,0,0.8,10,0)" />
    </marker>
    <marker
       orient="auto"
       refY="0"
       refX="0"
       id="marker1394"
       style="overflow:visible">
      <path
         id="path1392"
         d="M 0,0 5,-5 -12.5,0 5,5 Z"
         style="fill:#000000;fill-opacity:1;fill-rule:evenodd;stroke:#000000;stroke-width:1.00000003pt;stroke-opacity:1"
         transform="matrix(0.8,0,0,0.8,10,0)" />
    </marker>
  </defs>
  <metadata
     id="metadata1050">
    <rdf:RDF>
      <cc:Work
         rdf:about="">
        <dc:format>image/svg+xml</dc:format>
        <dc:type
           rdf:resource="http://purl.org/dc/dcmitype/StillImage" />
        <dc:title></dc:title>
      </cc:Work>
    </rdf:RDF>
  </metadata>
  <path
     d="m 101.13026,3e-5 c 0,0 -0.29763,0.39688 -0.38034,0.59531 -0.0827,0.19844 0.1323,0.44649 0.28112,0.89297 0.14883,0.44649 -0.69453,0.77721 -0.69453,0.77721 l -0.87643,0.51263 c 0,0 -0.843357,-0.34726 -1.223698,-0.34726 -0.380341,0 -1.074878,0.31419 -1.322916,0.34726 -0.24805,0.0331 0.496096,0.64493 0.347265,0.89297 -0.148799,0.24805 -0.132318,1.28985 -0.09922,1.45521 0,0 0.08271,0.5457 0.04961,0.76068 -0.03307,0.21497 0.07442,0.68626 0.23151,0.95085 0.157099,0.26458 0.330687,0.85989 0.289388,0.87643 -0.04134,0.0165 -1.000448,0.38033 -1.174088,0.47955 -0.17363,0.0992 -0.835091,0.57878 -0.835091,0.57878 0,0 -0.297651,-0.16536 -0.413412,-0.5457 C 95.193668,7.84658 95.722842,7.4497 95.574011,7.34222 95.425191,7.23473 95.011764,7.05283 94.904285,6.97842 94.796795,6.90402 94.482587,7.16859 94.383386,7.20993 94.267626,7.19343 93.804608,6.8792 93.672319,6.7469 93.54003,6.61462 92.746277,6.59808 92.746277,6.59808 l -0.09922,0.16536 c 0,0 -0.04961,0.79375 -0.330729,1.09141 -0.28112,0.29765 -0.810286,0.97565 -0.859896,1.32291 -0.04961,0.34727 -1.488281,1.58751 -1.653645,1.67019 -0.165365,0.0827 1.093991,1.70635 1.093991,1.70635 0.143835,0.48033 0.04015,1.33711 -0.628904,1.26091 -0.157515,0.79425 0.109778,1.66658 0.593246,2.3027 1.581076,-0.12825 0.954913,0.78462 1.760617,1.64848 0.412498,1.14834 2.146022,0.64839 2.363163,1.90531 0.12396,0.96699 -0.278829,1.97193 0.852659,2.38796 0.174961,0.5473 0.445143,1.02917 0.392742,1.29088 -0.04099,0.20481 -0.279429,0.27482 -0.915191,0.13591 -1.178578,-0.29092 -2.016818,0.95168 -3.139858,0.68523 -0.959204,0.31413 -1.93004,-1.54709 -2.412772,-0.0977 -0.901147,0.41277 -2.187586,0.23275 -2.78226,-0.68523 -0.495345,-0.94741 -1.961354,-0.72192 -2.373498,-1.80919 -0.959281,-0.56578 -0.495803,-1.86712 -1.538407,-2.28772 -0.49989,-0.64858 0.77647,-2.03591 -0.791683,-1.77198 -1.526556,0.90929 -3.281987,0.63266 -4.950087,0.51831 -1.333696,0.41653 -2.617978,-0.78559 -3.936193,-0.34416 -0.75742,1.00446 -1.282473,-0.45943 -1.45986,-1.20613 0,0 -0.845394,0.10017 -1.054198,-0.2005 -0.208804,-0.30068 -0.626319,-0.87695 -0.626319,-0.87695 0,0 -0.551129,0.008 -0.885216,0.14159 -0.334087,0.13364 -0.96869,0.0336 -1.352891,0.13384 -0.384199,0.10023 -0.96918,0.5012 -1.253152,0.91881 -0.283974,0.41761 -0.718023,0.5179 -1.620057,0.91881 -0.902036,0.4009 -1.603798,0.18341 -2.063956,0.0264 0,0 -1.220671,-0.13945 -1.397847,-0.12764 -0.177178,0.0118 -0.661606,0.21291 -1.01596,0.0475 -0.153554,-0.11811 -0.295145,-0.94486 -0.472321,-1.31103 -0.177178,-0.36616 -0.886254,-0.82704 -1.051616,-1.02784 -0.165367,-0.2008 -1.074795,-0.68501 -1.393713,-0.73226 -0.318919,-0.0472 -1.228297,0.28339 -1.590601,0.14676 -0.362305,-0.13662 -0.727604,-0.64698 -0.727604,-0.64698 0,0 -0.476452,-0.0334 -0.785482,0.10025 -0.309031,0.13363 -0.760045,0.73494 -0.977202,0.7767 -0.217156,0.0417 -1.027115,0.0417 -1.20251,0.0501 -0.175397,0.008 -0.709763,0.2341 -0.993738,0.2341 -0.283974,0 -0.476356,-0.44281 -0.743624,-0.55139 -0.267269,-0.10858 -1.586712,-0.20891 -1.870687,-0.40101 -0.283974,-0.1921 -0.651592,-0.60938 -0.785481,-0.71417 0,0 -0.317082,-0.28797 -0.492477,-0.48007 -0.175395,-0.19211 -0.40944,0.042 -0.701765,0.0837 -0.292328,0.0418 -0.358881,0.86853 -0.642856,0.93535 -0.283974,0.0668 -1.369814,0.31716 -1.536856,0.4842 -0.167044,0.16705 -1.670669,0.88529 -1.77302,1.00976 0,0 -0.77928,0.87422 -0.944645,0.93328 -0.165364,0.0591 -0.945012,0.24819 -1.169437,0.18913 -0.224422,-0.0591 -0.815086,-0.39471 -1.057299,-0.35295 -0.242212,0.0418 -0.334174,0.25886 -0.659908,0.41755 -0.325736,0.15869 -0.70151,0.61805 -1.035597,0.61805 -0.334087,0 -1.069094,0.65133 -1.386478,0.78497 -0.317383,0.13363 -1.227981,0.80201 -1.470194,0.80201 -0.242213,0 -1.569932,-0.53433 -1.569932,-0.53433 0,0 -1.620596,0.0417 -1.720823,0.0501 -0.100227,0.008 -1.453142,0.73484 -1.453142,0.73484 0,0 -0.726514,0.8601 -0.835091,0.99374 -0.108577,0.13364 0.133659,0.74333 0.14056,0.77463 0,0 -1.017622,-0.32336 -1.109494,-0.33176 -0.09187,-0.008 -1.043863,0.32556 -1.043863,0.32556 l -1.253154,-0.81855 c 0,0 -0.717981,0.37607 -0.801502,0.38447 -0.08352,0.008 -0.668382,-0.10056 -0.802018,0.0331 -0.133633,0.13364 -1.069057,0.61004 -1.236099,0.6351 -0.167045,0.0251 -0.576355,-0.025 -0.86868,-0.20877 -0.292328,-0.18375 -0.885103,0.35074 -1.10226,0.46767 -0.217156,0.11693 -0.735078,0.49248 -0.814937,0.56328 0,0 -0.744144,1.61835 -0.826823,1.67741 -0.08268,0.0591 -0.697188,0.79117 -0.957048,0.87385 -0.259858,0.0827 -0.614208,0.4016 -0.661458,0.66146 -0.04725,0.25986 -0.49565,0.54349 -0.755509,0.68523 -0.259858,0.14174 -0.62617,-0.0706 -0.68523,-0.0351 -0.05906,0.0354 -0.76171,0.43822 -0.76171,0.43822 0.136307,0.16003 0.251192,0.33294 0.277502,0.4532 0.04134,0.18898 0.254024,0.26584 0.301274,0.42529 0.04725,0.15946 -0.159897,0.44309 -0.195337,0.60255 -0.03543,0.15946 0.310027,0.18571 0.518831,0.26924 0.208804,0.0835 0.296401,0.23254 0.01292,0.48059 -0.283482,0.24804 0.02362,0.579 0.165365,0.69711 0.113151,0.0943 0.38452,0.73051 0.42323,1.17564 0,0 -0.785416,0.37778 -0.843876,0.47801 -0.05846,0.10022 2.79e-4,0.72671 -0.125574,0.8878 -0.188988,0.0591 -0.0798,0.62417 -0.363285,0.61236 -0.283482,-0.0118 -0.649795,0.23617 -0.767912,0.31885 -0.118115,0.0827 -0.165365,0.50798 -0.165365,0.50798 l 0.50798,0.22427 c 0.413502,0.0318 0.971316,-0.12402 0.968416,0.44907 0,0 -0.708262,0.66102 -1.003556,0.59014 -0.295294,-0.0709 -0.531751,-0.23579 -0.779798,-0.17673 -0.248046,0.0591 -0.55508,-0.35473 -0.56689,-0.39015 -0.07087,-0.0472 -1.370312,-1.00364 -1.594735,-1.01545 -0.224423,-0.0118 -1.665458,0.63747 -1.736328,0.68472 -0.07087,0.0472 -0.82653,1.12241 -0.77928,1.12241 0.04725,0 0.803051,0.30696 0.803051,0.555 0,0.24805 0.05891,0.79117 0.05891,0.79117 0,0 2.27e-4,1.00415 0.03566,1.18132 0.03544,0.17718 0.377903,0.77973 0.484208,0.51987 0.106306,-0.25986 0.673344,-0.4961 0.673344,-0.4961 0,0 1.098568,0.0119 1.334803,0.17725 0.236234,0.16537 0.472032,1.11031 0.507462,1.24024 0.03544,0.12993 -0.48421,0.63791 -0.56689,0.75603 -0.08268,0.11811 0.543562,0.74399 0.614432,0.88573 0.07087,0.14174 -0.127777,0.22121 -0.319877,0.37155 -0.1921,0.15034 0.200446,0.50098 0.309025,0.73484 0.108578,0.23386 -0.309123,0.45958 -0.350883,0.49299 -0.04176,0.0334 -0.709666,-0.0335 -0.95188,-0.25063 -0.242213,-0.21715 0.04165,-0.52637 0.217042,-0.70176 0.175396,-0.1754 -0.20891,-0.25016 -0.401009,-0.4005 -0.192101,-0.15034 -0.900204,0.0486 -0.900204,0.0486 0,0 -1.210563,0.38971 -1.216463,0.56689 -0.0059,0.17718 0.26547,0.41341 0.531233,0.41341 0.265765,0 0.466786,0.54969 0.655774,0.73278 0.188988,0.18308 0.713135,0.94567 0.713135,0.94567 -0.218305,0.0357 -0.400492,0.0579 -0.400492,0.0579 0,0 -0.602033,0.43704 -0.684713,0.66146 -0.08268,0.22442 -0.354648,0.2837 -0.543636,0.44907 -0.188989,0.16536 -0.377981,0.50783 -0.413411,0.81494 -0.03543,0.3071 -0.165439,0.54341 -0.425298,0.67334 -0.259858,0.12993 -0.318769,0.67319 -0.555004,0.81494 -0.236235,0.14174 -0.873775,0.47247 -0.944645,0.74414 -0.07087,0.27167 0.188988,0.56718 0.08268,0.69711 -0.106306,0.12993 0.01174,0.50754 0.153479,0.7674 0.141741,0.25986 0.649351,-0.035 0.861963,-0.0941 0.212612,-0.0591 0.472473,0.555 0.496093,0.72036 0.02362,0.16537 0.497645,0.58033 0.497645,0.58033 0,0 0.754768,0.22295 0.802018,0.42375 0.04725,0.2008 0.37163,0.65555 0.42478,0.7028 0.05315,0.0472 -0.07656,0.31891 -0.08837,0.53743 -0.01181,0.21852 -0.230181,0.24214 -0.348299,0.37207 -0.118117,0.12993 0.124024,0.43098 0,0.63769 -0.124023,0.20671 0.3585,0.42462 0.596346,0.46044 0.237846,0.0358 0.791241,0.5674 1.009758,0.48472 0.218518,-0.0827 0.578849,0.4724 0.797367,0.69091 0.218517,0.21852 0.307254,-0.0118 0.437183,-0.16536 0.12993,-0.15355 0.436812,0.33657 0.336413,0.40153 -0.1004,0.065 -0.318696,-0.065 -0.460437,0.0708 -0.141741,0.13584 -0.183008,0.39585 -0.360185,0.56121 -0.177176,0.16536 0.111916,0.25972 0.283187,0.22428 0.171269,-0.0354 0.04149,0.27189 -0.05891,0.36638 -0.1004,0.0945 0.271818,0.18884 0.395842,0.30696 0.124023,0.11812 -0.330878,0.41909 -0.478524,0.58446 -0.147647,0.16536 0.360184,0.15348 0.525549,0.19482 0.165364,0.0413 0.289314,0.37237 0.442867,0.54364 0.153552,0.17126 -0.271449,0.13008 -0.543119,-0.0176 -0.27167,-0.14765 -0.443089,0.1534 -0.643889,0.18293 -0.200799,0.0295 -0.507683,-0.35435 -0.708483,-0.20671 -0.200798,0.14765 -0.06519,0.66146 0.08837,0.86817 0.153553,0.2067 -0.02348,0.36631 -0.224275,0.47852 -0.200799,0.11221 -0.796811,-0.38924 -1.246436,-0.50798 -0.449652,-0.11874 -0.336635,-0.006 -0.454753,0.0946 -0.118118,0.1004 0.313083,0.17098 0.259933,0.28319 -0.05315,0.11221 -0.236042,0.0176 -0.402559,0.22531 -0.166519,0.20768 1.01e-4,3.1e-4 0.326078,0.0584 0.325977,0.0581 0.791166,0.75588 1.039213,1.06299 0.248046,0.3071 0.663826,0.9364 1.004073,1.22834 0.340247,0.29194 0.827045,0.47255 1.275891,0.25994 0.448847,-0.21261 0.307031,-0.2482 0.566891,-0.10646 0.259857,0.14174 0.673048,-0.29507 0.95653,-0.29507 0.283479,0 0.401674,0.64957 0.259933,0.9803 -0.141742,0.33073 0.17695,0.44885 0.21239,0.74414 0.03543,0.2953 -0.424928,1.83098 -0.531234,2.00815 -0.224423,0.15355 -0.685377,0.28348 -1.122412,0.16537 -0.437035,-0.11812 -0.625924,-0.15258 -1.086238,0.047 -0.460316,0.1996 -0.661459,0.38964 -0.909506,0.55501 -0.248047,0.16536 -0.767986,0.30747 -0.945162,0.39015 -0.177176,0.0827 -0.283703,0.37798 -0.53175,0.57878 -0.248047,0.2008 -0.294851,0.0709 -0.590145,0.0827 -0.295294,0.0118 -0.437183,0.50762 -0.767912,0.53123 -0.330729,0.0236 -0.449069,0.25972 -0.614433,0.47233 -0.165365,0.21261 -0.625727,0.31921 -0.944645,0.37827 -0.318917,0.0591 -0.66168,0.55515 -0.945162,0.66146 C 7.43698,68.74454 7.178455,68.45674 6.846614,68.62633 6.514773,68.79593 5.90488,68.91441 5.512328,69.19839 5.119776,69.48236 4.977523,69.6408 4.818831,69.58234 4.66014,69.52384 4.117574,69.71596 3.75843,69.84124 3.399287,69.96652 3.232313,69.61574 3.03186,69.53222 2.831408,69.44872 2.480252,69.67445 2.296504,69.81644 2.112756,69.95843 1.386501,70.3926 1.127583,70.29238 0.868666,70.19215 0.108595,70.20898 0.05013,70.43449 -0.00833,70.66 0.12529,71.19437 0,71.42823 c 0.314586,-0.13904 0.714462,-0.10267 0.947228,-0.016 0.392162,-0.20652 0.835102,0.0503 1.233,-0.076 0.312434,-0.23312 0.383982,0.20967 0.685746,0.23978 0.326328,0.0955 0.630229,0.0571 0.851111,-0.22066 0.256099,-0.31694 0.624553,-0.0562 0.819588,0.17674 0.272067,0.11951 0.407174,0.36984 0.567924,0.58808 0.242915,0.23716 0.649629,0.14659 0.887801,0.33486 0.273251,0.15362 -0.04417,0.6172 0.306958,0.6196 0.348443,0.048 0.527431,-0.28712 0.703834,0.13952 0.208139,0.45415 0.537461,0.8281 0.794266,1.24592 0.185388,0.32955 0.462246,0.52965 0.641821,0.86042 0.465381,0.37045 0.839469,0.89137 1.460893,0.98443 0.39075,0.16757 0.791156,0.35956 1.198893,0.48524 0.313513,0.001 0.604875,0.18139 0.91364,0.25373 0.464358,0.30209 0.991749,0.49223 1.474328,0.7705 0.561174,0.44169 1.225401,0.69244 1.828312,1.07074 0.408479,0.21194 0.789286,0.48061 1.253671,0.55862 0.725122,0.39676 1.57001,0.48892 2.30477,0.86609 0.318571,0.22721 0.766146,0.56727 1.152901,0.30335 0.226626,-0.32769 0.636479,-0.0178 0.899167,0.11007 0.871025,0.21502 1.683679,0.60987 2.463417,1.04903 0.246544,0.24461 0.490966,0.52277 0.870749,0.54209 -0.180599,0.76812 -0.804971,1.38025 -1.359609,1.90789 -0.914289,0.25112 -0.697061,1.36024 -0.968931,2.06757 -0.645832,0.86463 -1.714709,1.46949 -2.170411,2.4443 -0.429832,1.03264 -1.149049,1.91724 -1.869137,2.75952 -0.533366,0.29982 -1.033048,0.56083 -1.178222,1.196824 -0.748189,0.871721 -1.306709,-0.590514 -2.057756,-0.533814 -0.723129,0.526359 -0.762004,1.636672 -1.388029,2.262393 -0.217832,0.47044 -0.945196,1.082842 -0.624251,1.567863 0.404519,0.346548 1.413351,0.874834 0.651123,1.426784 -0.921071,0.219561 -1.929255,0.805481 -1.912545,1.88619 -0.849097,0.51249 -0.762125,0.96704 0.106454,1.54357 0.486495,0.66394 -0.479105,1.09966 -0.900204,1.44074 0.25707,0.60982 -1.372816,0.99096 -0.471289,1.41645 0.538655,0.0756 0.980075,1.27866 0.319361,1.48209 -0.579077,0.33319 -0.630073,1.27461 -1.260389,1.38182 -0.689509,-0.26782 -0.437563,1.18738 -0.247013,1.57923 0.229341,0.93413 1.698157,0.37639 1.728577,1.1989 -0.351866,0.84904 0.539585,0.94994 0.814937,1.61437 -0.196687,0.85402 0.252558,1.09757 0.706417,1.77819 0.92622,0.51479 0.438491,1.06778 0.799434,1.5906 0.171079,0.70576 -0.438808,1.32546 -0.171049,2.06602 0.905957,0.533 0.07554,1.15822 -0.241329,1.74976 0.0088,0.75315 1.322128,0.3693 1.805058,0.74053 1.345377,0.3167 0.138362,1.07419 0.484725,1.6707 0.923971,0.26278 1.830128,1.30186 2.82515,0.67954 0.453789,-0.58102 0.907214,-0.66111 1.389062,-1.14308 0.925558,0.19706 0.910749,-1.12512 1.725994,-0.76998 0.641829,-0.12564 1.493795,0.33802 1.980242,0.0527 -0.594532,-0.41792 0.202832,-0.27295 0.493509,-0.85421 0.546227,-0.085 1.281237,-0.28419 1.780251,0.005 1.373082,0.49827 -0.575151,0.46583 0.0956,1.05937 -0.296775,0.40978 0.310827,0.57936 0.724503,1.08107 0.263703,0.99545 0.943909,0.23563 1.183908,0.52658 -0.25949,0.55751 -0.782603,1.27859 -0.160714,1.79834 0.88232,0.12554 -0.172743,1.01489 0.307475,1.58802 0.428493,0.86893 -0.528706,0.76213 -1.020609,0.69143 -0.697918,-0.83848 -0.659582,0.42316 -0.540019,0.82579 -0.500452,0.39637 -0.182325,1.1782 0.424264,0.99219 0.478994,-0.14374 1.132909,0.46442 1.547194,-0.16124 0.531137,0.11576 0.0212,1.27365 -0.288357,1.62161 -0.118522,0.62343 0.858941,1.69885 1.106911,0.69867 0.783426,-0.39735 1.80639,0.0346 2.67012,0.12299 0.479679,-0.21528 0.470251,-1.18917 0.553971,-1.59836 -0.693812,-0.43446 0.224568,-1.26289 0.672827,-1.5384 0.648597,-0.56948 1.488798,0.12586 2.122869,-0.25425 0.586576,-0.56262 0.312296,-1.50614 0.999421,-1.9482 0.870283,0.0738 0.919758,-0.90881 1.567863,-1.22939 0.795305,-0.35513 1.179869,-1.00533 1.294495,-1.84949 0.920141,-0.14489 1.933271,-0.0568 2.606558,-0.81701 0.774446,-0.38938 0.737529,-1.65579 1.714109,-1.65571 0.845836,-0.40312 1.539623,-0.36285 1.923912,0.57826 1.259324,-0.82817 2.503884,-1.67285 3.595129,-2.7156 1.44576,-0.78627 2.199542,-2.2737 3.195156,-3.51606 1.184172,0.68907 2.502652,1.11679 3.799766,1.5291 0.555136,0.19652 1.123392,-0.0557 1.670182,0.0796 0.489032,0.4949 1.020289,0.96558 1.730645,1.08934 0.951251,0.41653 2.059657,0.20893 2.944006,0.8077 0.754266,0.12509 0.274796,1.09025 0.738457,1.46916 0.598601,0.37279 0.730607,1.04163 0.849561,1.68517 0.327623,0.62269 -0.04045,1.36619 0.304374,1.98231 -0.118202,0.68408 0.150061,1.33638 0.507979,1.90583 0.372449,0.31447 0.512871,0.96332 0.908471,1.10897 0.963096,0.92481 1.869368,1.91104 2.904217,2.75798 0.876639,0.60469 1.734519,1.29887 2.738332,1.67948 0.455985,0.42071 1.063958,0.53015 1.649513,0.69143 1.104289,0.65081 2.141834,1.44827 3.120739,2.28152 0.549926,0.59299 1.344594,0.27023 2.046388,0.35553 0.578945,-0.10392 1.019948,0.22692 1.562177,0.27492 0.558681,0.46294 1.214744,0.93864 1.825728,1.38958 0.516186,0.17102 1.028258,0.45501 1.551845,0.57981 0.848775,-0.19248 1.515679,0.69317 2.355929,0.44235 1.139198,0.1222 2.232057,0.7346 3.40496,0.6506 0.517665,0.0968 1.049348,0.14556 1.57303,0.25012 h 0.255799 c 0.452525,-0.0749 0.902108,-0.18162 1.353405,-0.26872 0.07073,0.0895 0.141144,0.17922 0.211873,0.26872 -0.344329,0.0949 -0.688682,0.18932 -1.033013,0.28422 -0.176141,0.0942 -0.325112,0.24259 -0.490924,0.3576 -0.0866,0.50928 -0.173344,1.01879 -0.259934,1.52807 -0.04979,0.12764 -0.173392,0.22124 -0.251664,0.3359 -0.148654,0.14454 -0.222295,0.3362 -0.305925,0.52141 -0.0479,0.17526 -0.198839,0.27705 -0.321426,0.39895 -0.221171,0.17713 -0.480404,0.30498 -0.716754,0.4625 -0.08026,0.12871 -0.123105,0.28916 -0.189134,0.42995 -0.13375,-0.029 -0.275503,-0.0329 -0.397391,-0.10077 -0.08773,-0.0677 -0.210984,-0.0481 -0.288356,0.0165 -0.08499,0.0963 -0.08397,0.19323 -0.0015,0.29093 0.0158,0.12656 -0.105945,0.16628 -0.189135,0.23048 -0.278458,0.12121 -0.577281,0.20251 -0.863513,0.30851 -0.127122,0.0262 -0.255365,0.14106 -0.381373,0.0574 -0.128262,-0.0705 -0.268631,-0.0681 -0.41031,-0.0579 -0.05256,0.0722 -0.03631,0.22175 -0.06253,0.32349 0.107291,0.0815 0.224287,0.15497 0.267168,0.29042 -0.307364,0.56542 -2.309199,0.27698 -1.535824,-0.72243 -0.372928,-0.4085 -0.58337,1.98901 -1.553911,2.08721 0.232238,0.17114 1.459888,0.97574 1.487249,1.17409 -0.15407,0.38638 -0.548098,0.79447 -0.93431,0.96221 -0.464778,-0.082 -0.98792,-0.70107 -1.0511,-1.11879 0.3121,-1.06405 -1.33913,0.27847 -1.717206,-0.85783 -0.835607,0.56144 -1.23517,1.35645 -2.008148,1.24385 0.580745,1.25166 -1.792698,0.70064 -0.216524,1.27383 0.988705,0.34991 2.266201,0.90311 2.862357,1.8035 -1.405551,-0.006 1.680337,0.8336 1.412317,1.41284 0.915823,0.78559 2.137987,0.94147 3.078366,0.37982 0.819124,0.53339 1.285333,-0.48344 2.089796,0.67127 0.774649,1.15365 0.380568,1.45082 1.543574,2.14251 0.461735,0.56994 0.559718,1.09697 0.866613,1.97817 0.408308,0.79052 0.621538,1.61966 -0.314193,2.15129 0.798402,1.29339 1.835071,-0.39417 2.772958,0.24392 1.040759,0.70616 1.326705,-1.28665 2.182296,-0.75551 1.088491,0.59105 0.866365,1.93842 1.824694,2.43758 0.06044,0.99052 1.641885,0.87567 2.332675,0.19792 0.38232,-1.06458 -2.248104,-0.13846 -1.179774,-1.40147 -0.713039,-1.63318 1.67432,0.68737 0.953431,-1.04696 -0.88152,-1.25579 1.344935,-0.49831 1.338937,0.4656 1.52074,-0.48235 2.51439,0.89483 3.69641,1.5596 1.12338,-0.11988 2.03628,-0.0203 2.81585,0.88056 0.59998,1.19639 -0.8945,1.96651 -0.39997,3.13573 -0.141,1.30984 2.59197,0.95006 1.603,1.97094 -0.71079,0.74026 -0.0577,2.04861 0.99167,1.67535 0.80617,-0.0472 1.31963,-0.60747 2.29753,-0.47904 0.93358,0.59952 1.92333,1.11531 2.45464,2.01951 1.54184,0.67356 2.18073,2.5278 3.84317,2.89182 0.66723,-0.69936 1.90013,-0.0514 2.84892,-0.0119 1.08327,0.69137 0.53326,-2.17267 1.43299,-0.59945 0.74228,0.51461 0.30059,2.26635 1.64848,1.603 1.41927,0.0872 0.4943,1.44021 0.77308,2.26188 -0.42311,1.10494 -0.0126,1.67811 0.31316,2.68511 0.30112,1.31326 1.5802,0.27915 2.31923,0.28215 1.14022,0.48335 1.82786,-0.48441 2.9006,-0.34985 1.20047,0.75385 2.53633,-0.10671 3.06907,-1.2392 0.53215,-1.24068 2.27807,0.16518 1.603,1.10122 -0.46719,0.85127 -0.13957,2.09284 0.95498,1.27073 1.20663,0.26306 1.46346,-1.61424 2.71146,-1.09089 0.91581,-0.49056 1.76903,0.58561 2.57711,0.85834 1.29009,1.02787 1.52985,-0.54071 2.73471,-0.30075 -0.0106,-1.28351 1.60366,-0.44307 1.88413,-1.5782 0.96143,-0.48292 1.96036,0.22172 2.55695,-0.85783 1.02179,0.39649 2.12919,-0.12304 2.75952,1.12035 0.0904,0.47357 2.27611,0.87926 0.62063,1.52497 -0.81366,0.44791 0.15795,1.14672 -0.003,2.00194 -0.15082,0.80627 -2.02358,0.30392 -0.71623,1.37563 0.89779,0.0443 2.01002,-0.37434 1.78852,-1.37511 -0.41647,-1.03462 1.08103,-1.73385 1.92288,-1.27641 0.669,0.11674 2.2317,0.75864 2.13113,1.70532 -0.87811,0.42211 -2.2129,-0.95842 -2.37504,0.65474 0.86724,0.63958 2.02596,1.10303 3.08198,0.66611 2.07258,-0.7141 -0.40051,0.7256 0.6134,1.38752 1.04987,0.51306 1.12972,1.29749 1.78438,2.25464 -0.18882,1.53149 1.80965,1.77379 2.93057,1.96267 1.3801,0.18511 2.55052,-0.53494 3.41168,-1.57716 0.69332,-0.86541 1.32606,-1.55726 1.5937,-2.56884 0.0865,-1.21792 -1.44002,-1.44133 -0.092,-2.43913 0.75637,-0.7537 1.2827,-1.85357 2.36627,-1.11259 l -0.40876,-0.51108 -0.14935,-1.82883 -0.0816,-1.27486 -0.18759,-2.24379 0.47336,-0.74466 0.95395,-1.57354 1.11569,-1.6676 0.28319,-0.75913 0.52968,0.14315 0.66456,0.17621 0.60668,-1.63762 0.0176,-0.005 0.57826,-0.0899 0.0207,-0.0744 0.0217,-0.077 -0.79117,-0.23358 0.10284,-0.26769 0.10749,-0.27801 0.24391,-0.63356 -0.3266,-0.0868 0.68162,-1.84123 -0.52865,-0.13539 -0.0191,-0.006 0.0889,-0.23461 0.98753,-2.60811 1.20355,-0.83044 c 0.26324,-0.1593 0.29514,-0.48413 0.38964,-0.72037 0.0945,-0.23628 0.4137,-0.0707 0.709,-0.0589 0.29531,0.0118 0.12969,-0.55508 0.21239,-0.73225 0.0827,-0.17717 0.51963,0.10623 0.73226,0.31884 0.21261,0.21256 0.54319,0.0591 0.80305,0.16536 0.25985,0.10631 0.34284,0.49591 0.62632,0.55501 0.28348,0.0591 0.47247,-0.0827 0.74414,0 0.27167,0.0827 0.47617,0.26066 0.71003,0.34416 0.23386,0.0835 0.29235,-0.30883 0.40928,-0.53433 0.11693,-0.22554 0.50976,-0.0669 0.74362,-0.15038 0.23386,-0.0835 0.0502,-0.63498 0.25063,-0.80202 0.20045,-0.16707 0.69312,0.0837 0.88522,0.0837 0.1921,0 0.43414,-0.30083 0.32556,-0.55139 -0.10858,-0.25057 -0.57605,-0.53439 -0.64285,-0.78496 -0.0668,-0.25056 -0.22543,-0.34278 -0.36743,-0.6351 -0.14197,-0.29235 0.19189,-0.20031 0.17519,-0.37569 -0.0167,-0.1754 -0.10011,-0.81841 -0.21704,-0.93534 -0.11693,-0.11695 -0.31751,-0.57615 -0.50126,-0.73484 -0.18374,-0.15869 -0.44277,-0.10859 -0.50126,-0.35916 -0.0585,-0.25056 0.2657,-0.9546 0.2775,-1.14359 0.0118,-0.18901 0.46088,-0.17719 0.61443,-0.0827 0.15355,0.0945 0.0945,0.83833 0.33073,1.02732 0.23623,0.18899 0.38986,-0.0354 0.59066,-0.23616 0.2008,-0.2008 0.44862,0.0354 0.6258,0.24805 0.17718,0.21261 0.67305,0.64957 0.87385,0.64957 0.2008,0 0.41341,-0.55536 0.41341,-0.69712 0,-0.14174 -0.31859,-0.37753 -0.28318,-0.50746 0.0354,-0.12993 0.27164,-0.37828 0.24804,-0.62631 -0.0236,-0.24805 -0.35435,-0.66132 -0.24804,-0.80306 0.1063,-0.14175 0.5432,-0.48421 0.555,-0.64957 0.0118,-0.16537 -0.18879,-0.43704 -0.14159,-0.57878 0.0472,-0.14174 0.11782,-0.36616 0.11782,-0.49609 0,-0.12993 0.1066,-0.64987 0.29559,-0.94516 0.18903,-0.29529 -0.0829,-0.5669 -0.0475,-0.81494 0.0354,-0.24802 0.34261,-0.1771 0.50797,-0.31884 0.16537,-0.14174 0.26008,-0.61443 0.44907,-0.7798 0.18899,-0.16536 -0.0354,-0.27167 -0.15348,-0.41341 -0.1181,-0.14174 0.0825,-0.49608 -0.0238,-0.57878 -0.1063,-0.0827 -0.27167,-0.17674 -0.41341,-0.34209 -0.14174,-0.16541 -0.3779,0.0115 -0.73225,-0.0594 -0.35435,-0.0709 -0.37791,-0.2008 -0.48421,-0.4961 -0.10631,-0.29529 -0.13023,-0.4959 -0.29559,-0.555 -0.16537,-0.0591 -0.28356,-0.30718 -0.50798,-0.50798 -0.2244,-0.2008 0.0122,-0.85066 -0.0232,-0.94517 -0.0354,-0.0945 -1.21647,-0.18891 -1.21647,-0.40152 0,-0.21262 0.25941,-0.29497 0.50746,-0.36587 0.24806,-0.0709 0.39017,-0.42523 0.55553,-0.57878 0.16537,-0.15356 -0.22457,-0.2837 -0.3545,-0.44906 -0.12993,-0.16537 0.13013,-0.35421 0.11834,-0.55501 -0.0118,-0.20076 -0.48436,-0.10638 -0.75603,-0.25993 -0.27167,-0.15356 -1.32314,-0.61399 -1.52394,-0.79117 -0.2008,-0.17718 0.29542,-0.23659 0.27182,-0.29559 -0.0236,-0.0591 -0.21276,-0.48429 -0.0238,-0.74414 0.18901,-0.25986 0.23653,-0.61394 0.25063,-0.77204 -0.10289,-0.0688 -0.46244,-0.46733 -0.38034,-0.56173 0.0565,-0.0649 0.46059,-0.15374 0.64957,-0.11833 0.18897,0.0354 0.28362,-0.23623 0.27182,-0.33073 -0.0118,-0.0945 0.31855,0.0236 0.43667,0.16536 0.11812,0.14175 0.82689,-0.0238 0.92139,-0.11834 0.0945,-0.0945 -0.4135,-0.29497 -0.4253,-0.36587 -0.0118,-0.0709 0.42559,-0.0947 0.63821,-0.10645 0.21258,-0.0118 0.0587,0.23615 0.0351,0.40152 -0.0236,0.16534 0.31869,0.012 0.6258,0.0238 0.3071,0.0118 0.81535,-2.2e-4 0.88625,-0.11834 0.0709,-0.11812 -0.15364,-0.24782 -0.34262,-0.54311 -0.18899,-0.2953 -0.48421,-0.59038 -0.64957,-0.70849 -0.16537,-0.11812 9e-5,-0.2011 0.0119,-0.37827 0.0118,-0.17718 0.32915,-0.1921 0.53796,-0.30903 0.20883,-0.11694 0.05,-0.41763 0.11678,-0.50953 0.0668,-0.0919 0.39297,-0.0668 0.41807,0.10026 0.0251,0.16706 0.0914,0.14184 0.25011,0.21704 0.15869,0.0748 0.35937,0.0996 0.44287,0.008 0.0835,-0.0919 0.10874,-0.49235 -0.0667,-0.6594 -0.1754,-0.16705 0.0417,-0.20898 0.10852,-0.34261 0.0668,-0.13364 0.51788,-0.14189 0.60978,-0.26716 0.0919,-0.12534 0.24224,-0.0752 0.40928,-0.10026 0.16707,-0.0251 0.15873,-0.53442 0.25063,-0.62632 0.0919,-0.0919 0.37556,0.35048 0.5426,0.29198 0.16704,-0.0585 0.32586,-0.36716 0.50126,-0.44236 0.17575,-0.0752 0.0669,-0.2423 -0.008,-0.401 -0.0752,-0.1587 0.28393,-0.17527 0.46767,-0.26717 0.18377,-0.0919 0.25099,-0.41793 0.26769,-0.48473 0.0167,-0.0668 -0.28428,-0.15027 -0.48473,-0.20877 -0.20044,-0.0585 -0.10841,-0.19227 -0.16691,-0.29249 -0.0585,-0.10023 -0.41784,0.18424 -0.54312,0.10904 -0.12528,-0.0752 0.2927,-0.47623 0.3762,-0.60151 0.0835,-0.12528 -0.22568,-0.2089 -0.29249,-0.35089 -0.0668,-0.14164 0.52634,-0.19234 0.86042,-0.13384 0.33409,0.0585 0.6682,-0.0667 0.7183,-0.16691 0.0501,-0.10022 -0.2924,-0.41725 -0.2005,-0.44235 0.0919,-0.025 0.2754,0.0918 0.4842,0.0584 0.20881,-0.0334 0.32578,0.15864 0.50953,0.15864 0.18378,0 0.12522,-0.4511 0.10852,-0.6599 -0.0167,-0.20885 0.43424,-0.0836 0.67645,-0.15038 0.24186,-0.0668 0.15059,-0.50922 0.23409,-0.64286 0.0835,-0.13363 0.7183,-0.54312 0.7183,-0.54312 0,0 0.21708,-0.51783 0.3173,-0.66817 0.10023,-0.15034 -0.0418,-0.58476 -0.10025,-0.76016 -0.0585,-0.17539 0.11687,-0.7099 0.20877,-0.82683 0.0919,-0.11695 0.51818,-0.0916 0.68523,-0.18345 0.167,-0.0919 -2.2e-4,-0.67647 -0.0253,-0.72657 -0.0251,-0.0501 -0.20019,-0.21735 -0.33383,-0.39274 -0.13363,-0.1754 0.10841,-0.21733 0.16691,-0.34261 0.0585,-0.12528 -0.12534,-0.38434 -0.25063,-0.45114 -0.12528,-0.0668 -0.4093,-0.1002 -0.4594,-0.2589 -0.0501,-0.15864 -0.20872,-0.008 -0.3173,-0.0248 -0.1086,-0.0167 -0.1506,-0.0584 -0.17569,-0.10025 -0.0251,-0.0418 -0.008,-0.0168 -0.0749,-0.14211 -0.0668,-0.12564 -0.40122,0.0584 -0.48472,0.008 -0.0835,-0.0501 -0.0923,-0.36744 -0.10026,-0.46767 -0.008,-0.10022 -0.30871,-0.20907 -0.44234,-0.33435 -0.13365,-0.12528 0.0333,-0.46753 0.16691,-0.63458 0.13364,-0.16704 -0.0837,-0.0919 -0.24236,-0.15038 -0.1587,-0.0585 -0.0333,-0.28402 -0.0667,-0.50953 -0.0334,-0.22551 -0.13336,-0.57646 -0.18346,-0.58446 -0.0501,-0.008 -0.20955,-0.30943 -0.21755,-0.52658 -0.008,-0.21711 -0.0836,-0.20005 -0.20051,-0.24185 -0.11691,-0.0418 -0.008,-0.16716 0.092,-0.24236 0.0999,-0.0752 0.18388,-0.16729 0.092,-0.28422 -0.0919,-0.11689 -0.35092,0.0333 -0.45113,0.0253 -0.10024,-0.008 -0.17505,-0.45084 -0.24185,-0.63459 -0.0668,-0.18376 0.27527,-0.17543 0.29197,-0.25063 0.0167,-0.0752 -0.30076,-0.36742 -0.30076,-0.36742 0,0 -0.008,-0.66847 0.13385,-0.79375 0.14199,-0.12529 0.71853,0.0755 0.95239,0.1757 0.23386,0.10023 0.40066,-0.16729 0.38396,-0.28422 -0.017,-0.11693 -0.0749,-0.34218 -0.0248,-0.43408 0.0501,-0.0919 0.16704,-0.15065 0.30903,-0.0755 0.14198,0.0752 0.23353,0.27592 0.39222,0.22582 0.1587,-0.0501 -0.008,-0.30104 -0.0501,-0.42633 -0.0418,-0.12528 0.28449,-0.30032 0.29249,-0.39222 0.008,-0.0919 -0.13345,-0.2843 0.0336,-0.37621 0.16703,-0.0919 0.2669,-0.38399 0.2589,-0.53433 -0.008,-0.1503 0.13373,-0.14214 0.35089,-0.19224 0.21712,-0.0501 0.21693,-0.25879 0.27543,-0.31729 0.0585,-0.0581 0.47608,0.0334 0.66818,-0.0501 0.1921,-0.0835 -2.2e-4,-0.43487 0.17518,-0.44287 0.1754,-0.008 0.47632,-0.48394 0.64337,-0.55914 0.16704,-0.0752 0.30075,0.17523 0.55966,0.37569 0.25892,0.20045 0.35903,-0.0419 0.52607,-0.14211 0.16703,-0.10024 0.72678,-0.1251 0.91053,0.0336 0.18374,0.15869 0.75126,0.21677 0.96842,0.29197 0.21715,0.0752 0.81895,0.0834 0.98599,0.0755 0.16705,-0.008 0.34236,-0.5095 0.26716,-0.7183 -0.0752,-0.20881 0.1418,-0.75185 0.27544,-0.91054 0.13363,-0.15869 0.67686,-0.43381 0.94413,-0.42582 0.26728,0.008 0.28354,-0.14208 0.30024,-0.35088 0.0167,-0.20881 0.22553,-0.12522 0.40928,-0.10852 0.18375,0.0167 0.21723,-0.1754 0.25062,-0.2589 0.0334,-0.0835 0.33444,-0.0253 0.42634,-0.18396 0.0919,-0.1587 0.15424,-0.4635 0.22944,-0.5178 0.0752,-0.0543 0.66378,-0.0789 0.79323,-0.14573 0.1291,-0.0668 0.11267,-0.20502 0.008,-0.32195 -0.10441,-0.11692 -0.0167,-0.15881 0.10025,-0.29662 0.11691,-0.13781 0.15891,-0.33841 0.19431,-0.57464 0.0354,-0.23624 0.54346,-0.50761 0.59066,-0.77928 0.0472,-0.27167 0.50798,-0.95705 0.50798,-0.95705 0,0 -0.0118,-1.47661 0,-1.67741 0.0118,-0.2008 0.23609,-0.28341 0.38964,-0.64958 0.15355,-0.36616 0.43699,-0.82668 0.49609,-1.0511 0.0591,-0.22443 0.96894,-1.09864 0.96894,-1.09864 0,0 0.17687,-0.0354 0.53123,0 0.35435,0.0354 0.7089,-0.22417 0.77979,-0.29507 0.0709,-0.0709 0.99205,-0.0829 1.21647,-0.0475 0.22443,0.0354 0.73255,0.6264 0.94516,0.6382 0.21262,0.0118 1.42893,-0.0827 1.77147,-0.24804 0.34254,-0.16536 0.38979,-0.64992 0.57878,-0.69712 0.18898,-0.0473 0.25978,-0.16537 0.40152,-0.41341 0.14174,-0.24806 0.26015,-0.24813 0.46095,-0.25993 0.2008,-0.0118 0.51952,-0.22413 0.54312,-0.36587 0.0236,-0.141741 0.25993,-0.271672 0.4253,-0.413412 0.16536,-0.14174 0.40308,-0.64389 0.40308,-0.64389 0,0 0.35885,-0.08366 0.5426,-0.04186 0.18375,0.0418 0.79361,0.03356 0.91054,-0.01654 0.11693,-0.05012 0.6765,-0.551426 0.82682,-0.701767 0.1504,-0.150334 0.10869,-0.509231 0.092,-0.692981 -0.0167,-0.183748 0.21725,-0.200459 0.30075,-0.359151 0.0835,-0.158689 -0.10031,-0.509664 -0.14211,-0.701765 -0.0418,-0.1921 0.27583,-0.835466 0.44287,-0.952396 0.16705,-0.116891 0.71808,-0.133594 0.89348,-0.141595 0.17539,-0.0084 0.5181,-0.542917 0.6935,-0.768427 0.17539,-0.225512 0.82661,-1.052509 1.00201,-1.169439 0.17538,-0.11693 0.26722,-0.367374 0.30902,-0.526066 0.0418,-0.158689 0.89353,-0.484746 1.04387,-0.584975 0.15034,-0.100232 0.27581,0.01675 0.44286,0.10025 0.16705,0.08352 0.33425,-0.208473 0.39275,-0.392226 0.0585,-0.18376 0.1754,-0.24263 0.35915,-0.25063 0.18375,-0.008 0.292,-0.27572 0.34209,-0.40101 0.0501,-0.12528 0.4011,-0.38417 0.7519,-0.5178 0.35079,-0.13364 0.81842,-0.21726 0.98547,-0.30076 0.16705,-0.0835 0.63475,-0.43432 0.61805,-0.7183 -0.0167,-0.28397 -0.26739,-0.58468 -0.35089,-0.76843 -0.0836,-0.18374 -0.0165,-0.60124 -0.17415,-1.00872 -0.15766,-0.40748 -0.43304,-0.57257 -0.43304,-0.57257 0,0 0.13443,-0.0554 0.20463,-0.21911 0.0701,-0.16371 0.59627,-0.39797 0.74828,-0.43305 0.15201,-0.0351 0.49107,-0.45589 0.37413,-0.71314 -0.11692,-0.25724 0.53799,-1.06401 0.63149,-1.15755 0.0935,-0.0935 0.67822,-0.39749 0.72502,-0.65474 0.0468,-0.25725 0.32768,-0.38596 0.54984,-0.44442 0.22217,-0.0585 0.54932,-0.24546 0.54932,-0.24546 l 0.88883,0.82992 c 0,0 -7e-5,0.0471 -0.0703,0.26924 -0.0702,0.22217 -0.40917,0.29236 -0.46767,0.31574 -0.0585,0.0234 0,0.32736 0,0.46767 0,0.14032 0.0233,0.64329 0.0584,0.7953 0.0351,0.15201 0.32763,0.87695 0.32763,0.87695 0,0 0.9822,-0.47981 1.28622,-0.52658 0.30402,-0.0468 1.1109,-0.26851 1.22783,-0.4439 0.11693,-0.1754 0.44394,-0.16376 0.66611,-0.12868 0.22216,0.0351 0.72536,0.39734 1.12293,0.36226 0.39756,-0.0351 0.40462,-0.11731 0.52038,-0.31575 0.11575,-0.19843 0.89401,-0.36897 0.89401,-0.36897 0.16536,0.12403 1.77508,-0.24339 1.77508,-0.24339 0.0366,-0.21902 0.16089,-0.40908 0.36484,-0.66198 0.29234,-0.36251 0.082,-0.9472 0.0703,-1.22783 -0.0117,-0.28063 0.0457,-0.74724 0.0377,-0.8878 -0.008,-0.14056 -0.43821,-0.0331 -0.63665,-0.11576 -0.19844,-0.0827 -0.35553,-0.35553 -0.62012,-0.41341 -0.26458,-0.0579 -0.79375,-0.27285 -1.0666,-0.41341 -0.27285,-0.14056 -0.30592,-0.57051 -0.47129,-0.68626 -0.16536,-0.11576 -0.62012,-0.20671 -0.85163,-0.23978 -0.23151,-0.0331 -1.14928,-0.10749 -1.37252,-0.19017 -0.22324,-0.0827 -0.57051,0.12403 -0.85163,0.0579 -0.28112,-0.0662 -0.74415,-0.0413 -0.90951,-0.0413 -0.16537,0 -0.76894,0.39688 -0.89297,0.33073 -0.12403,-0.0662 -0.15714,-0.27286 -0.22324,-0.52917 -0.0661,-0.25632 -0.0165,-0.42168 -0.14883,-0.51263 -0.13228,-0.091 -0.76068,-0.0413 -1.03352,-0.23978 -0.27285,-0.19844 -0.68626,-1.02526 -0.90124,-1.17409 -0.21497,-0.14883 -0.87643,-0.091 -1.07487,-0.24805 -0.19849,-0.15709 0.008,-0.82682 -0.0909,-0.98391 -0.0992,-0.1571 -0.38034,0.18186 -0.62012,0.19016 -0.23977,0.008 -0.62839,0.19018 -0.76068,0.21498 -0.13229,0.0248 -0.86821,-0.45475 -0.95911,-0.30593 -0.0909,0.14883 -1.14102,0.339 -1.46348,0.24805 -0.32246,-0.0909 -0.19844,-0.37207 -0.47129,-0.60358 -0.27285,-0.23151 -1.04179,0.0331 -1.24023,-0.0579 -0.19847,-0.091 0.089,-0.13419 0.0656,-0.43821 -0.0234,-0.30402 -0.97085,-0.45604 -1.18133,-0.50281 -0.21047,-0.0468 -0.43234,-0.26908 -0.42064,-0.5731 0.0117,-0.30401 -0.18749,-0.90004 -0.43305,-1.20406 -0.24555,-0.30402 -0.38546,-0.24555 -0.85318,-0.59634 -0.46772,-0.35079 -1.15796,-0.94735 -1.21646,-1.01751 -0.0585,-0.0702 -0.36221,-0.66662 -0.73639,-0.76016 -0.37417,-0.0936 -1.11113,-0.78345 -1.55546,-1.09916 -0.44434,-0.31571 -0.84172,0.1289 -1.08727,-0.14004 -0.24556,-0.26894 -0.29205,-0.93554 -0.36225,-0.94723 -0.0702,-0.0117 -0.59531,0.0522 -0.89297,0.0109 -0.29766,-0.0413 -0.9095,-0.42995 -1.13275,-0.71934 -0.22324,-0.28938 -0.71107,-0.44648 -1.00046,-0.53743 -0.28939,-0.091 -0.90123,-0.61185 -1.04179,-0.75241 -0.14056,-0.14056 -0.66147,0.0165 -0.82683,0.0165 -0.16537,0 -0.51262,-0.0496 -0.99218,-0.33073 -0.47956,-0.28112 -0.71935,0.0248 -1.05007,0.0909 -0.33073,0.0661 -1.05004,-0.24805 -1.13275,-0.20671 -0.0827,0.0413 -0.42994,0.83509 -0.81028,1.00046 -0.38034,0.16536 -1.2237,0.87643 -1.35599,0.87643 -0.13229,0 -0.36329,-0.88677 -0.36329,-0.88677 -1.2765,-0.0303 -2.06994,-1.75518 -2.93315,-2.42414 -2.00263,-0.39769 -4.8069,-0.40337 -5.71025,-2.57762 -0.82415,-0.81982 -1.792,0.9267 -2.71766,-0.0987 -1.27972,-0.82542 -3.2309,-1.12627 -3.89434,-2.52646 -0.72305,-0.24756 -1.55593,-0.49509 -2.39572,-0.54416 -0.68481,0.18888 -0.98129,0.80089 -1.187,-0.076 -0.54363,0.54005 -1.26921,0.90927 -1.8433,0.10387 -1.09793,-0.15084 -1.96506,-1.66511 -1.02061,-2.46858 0.084,-0.63249 -1.71637,-0.54951 -0.63769,-1.387 1.07275,-0.87337 0.37418,-2.11756 -0.37052,-2.45153 l -0.0191,-1.53272 c 1.07799,0.033 1.81214,-0.62128 1.79214,-1.70946 0.68554,-0.71783 1.25887,-1.78403 0.43254,-2.62206 -0.13913,-0.71557 -1.23067,-1.40777 -1.49242,-0.28835 -1.02348,0.0255 -1.80527,-0.86433 -1.53738,-1.87741 -0.75704,-0.6323 -1.1191,-1.91743 -2.30735,-1.86707 -1.37177,-0.15739 -0.46342,1.58239 -1.94355,1.49397 -0.52727,1.19367 -1.76912,0.736 -2.42672,-0.0574 -0.45959,-0.30089 -0.95951,-0.61185 -1.0604,-1.28571 0.0179,-0.74862 -0.65196,-1.04837 -1.2175,-1.38131 -0.34124,-0.3637 -0.46715,-1.09329 -1.15962,-0.80771 -0.64148,0.0418 -1.18362,-0.15159 -1.61695,-0.60668 -0.52651,-0.57416 -1.12463,-1.11668 -1.91513,-1.341 -0.94453,-0.68058 -2.07091,-1.22327 -3.23391,-1.39992 -0.56845,-0.0129 -1.45479,0.41476 -1.64073,-0.41031 -0.31399,-0.43291 -0.4592,-0.93067 -0.82682,-1.30999 -0.20052,-0.71598 -1.32568,-0.11603 -1.5441,-0.7581 -0.26694,-0.33566 -0.0731,-1.03783 -0.43925,-1.38958 -0.20524,-0.6186 -0.47876,-1.25796 -0.84697,-1.75441 -0.27979,-0.48591 -0.89991,-0.29267 -1.35186,-0.41393 -0.77887,-0.47455 -1.42976,0.42606 -2.20555,0.2775 -0.9402,-0.61467 -1.22538,-0.3875 -2.25206,-0.76533 -0.57134,-0.16582 -0.84854,-0.88675 -1.54822,-0.6227 -0.36371,0.23964 -0.65568,0.58445 -0.81132,0.95137 -0.83972,0.54783 -1.90538,0.8159 -2.8975,0.6227 -0.14542,0.0106 -0.29563,-0.006 -0.44752,-0.0357 -0.60187,-0.11634 -1.23229,-0.42893 -1.71514,-0.005 -0.0703,0.57009 -0.86015,0.65553 -1.63814,0.57516 -0.93539,-0.0158 -1.80028,0.45942 -2.44688,1.03611 -0.49276,0.0551 -0.73212,0.97803 -1.23093,0.42323 -0.24311,-0.76768 -1.18817,-0.61456 -1.83142,-0.83044 -0.58131,-0.27039 -1.14421,-0.58306 -1.58801,-1.01027 -0.45637,-0.37894 0.36546,-0.84323 0.31936,-1.2547 -0.32095,-0.18165 -1.39882,0.19088 -1.17771,-0.42479 0.37966,-0.57755 -0.0392,-1.1458 -0.54363,-1.43298 -0.53797,-0.20836 -0.73884,-0.68972 -0.63407,-1.27383 -0.40115,-0.40931 -1.08502,-0.2535 -1.56115,-0.0336 -0.56255,-0.23648 -1.14254,-0.23245 -1.72134,-0.0822 -0.93873,-0.0314 -1.87628,0.34658 -2.79414,0.1173 -0.13874,-0.76233 -0.37676,-1.49947 -0.31317,-2.28668 -0.0555,-0.48843 -0.61404,-0.7047 -1.08985,-0.57309 -0.20583,-0.48091 -0.0665,-1.05809 -0.25993,-1.54926 -0.135,-0.40738 -0.32859,-0.79152 -0.56327,-1.14256 -0.55699,-0.20043 -1.21306,0.0783 -1.77974,-0.1478 -0.47042,-0.31763 -0.98013,-0.6386 -1.57665,-0.47077 -0.57195,0.12003 -0.39743,-0.75733 -0.93121,-0.68368 -0.55185,0.0999 -0.76823,-0.42482 -1.1653,-0.70435 -0.19268,-0.67622 -0.85392,-1.06123 -1.1126,-1.69964 -0.31696,-0.54268 0.45271,-0.82637 0.3514,-1.35444 -0.30006,-0.76496 -0.62426,-1.5693 -0.97823,-2.30735 -0.24718,-0.33691 -0.48366,-0.69518 -0.6873,-1.08469 -0.60468,-0.28691 -1.41611,0.0842 -1.89911,-0.5271 -0.36368,-0.52781 -0.18818,-1.43887 0.35915,-1.81487 0.4533,-0.23304 0.83756,-0.95816 0.32453,-1.2945 -0.57429,-0.47931 -1.2273,-0.90522 -1.67535,-1.4919 -0.14186,-0.40223 0.17137,-0.69839 0.0729,-1.07332 C 111.146,7.97653 110.2361,7.86398 109.7138,7.33392 109.34726,7.05888 109.07981,6.68351 108.78827,6.33088 108.35828,5.9739 108.21678,5.38316 107.9108,4.88704 107.60046,4.01244 106.58725,3.72643 106.17189,2.93109 105.82045,2.20705 105.35272,1.47703 104.49137,1.37046 103.82388,1.21237 103.14652,1.00386 102.63774,0.57671 101.96289,0.42309 101.58868,0.51281 101.13034,0 Z"
     style="fill:#a30000;fill-opacity:1;fill-rule:nonzero;stroke:none;stroke-width:0.19185308"
     id="path1638" />
</svg>
